<svg width="25" height="25" viewBox="0 0 25 25" fill="none" xmlns="http://www.w3.org/2000/svg">
<g id="Icon/Plus">
<path id="Vector" fill-rule="evenodd" clip-rule="evenodd" d="M14.5183 4.94594C14.5183 4.36297 14.0457 3.89038 13.4628 3.89038C12.8798 3.89038 12.4072 4.36297 12.4072 4.94594V12.3348H5.01832C4.43536 12.3348 3.96277 12.8074 3.96277 13.3904C3.96277 13.9733 4.43536 14.4459 5.01832 14.4459H12.4072V21.8348C12.4072 22.4178 12.8798 22.8904 13.4628 22.8904C14.0457 22.8904 14.5183 22.4178 14.5183 21.8348V14.4459H21.9072C22.4902 14.4459 22.9628 13.9733 22.9628 13.3904C22.9628 12.8074 22.4902 12.3348 21.9072 12.3348H14.5183V4.94594Z" fill="#50A361"/>
</g>
</svg>
