<?xml version="1.0" encoding="UTF-8" standalone="no"?>
<svg
   width="35"
   height="35"
   version="1.1"
   id="svg1"
   >
  <defs
     id="defs1" />
  <path
     fill-rule="evenodd"
     clip-rule="evenodd"
     d="M 17.51448,0 C 7.8294248,0 0,8.0207998 0,17.943623 c 0,7.931842 5.0165825,14.64598 11.975912,17.022325 0.870096,0.178645 1.188808,-0.386093 1.188808,-0.861143 0,-0.415988 -0.02868,-1.841867 -0.02868,-3.327538 C 8.2639353,31.84695 7.2493615,28.638266 7.2493615,28.638266 6.4663831,26.558691 5.3062558,26.024214 5.3062558,26.024214 3.7116186,24.925 5.4224119,24.925 5.4224119,24.925 c 1.7688715,0.118854 2.6970448,1.841867 2.6970448,1.841867 1.5655981,2.732905 4.0884093,1.960721 5.1033413,1.485307 0.144836,-1.158641 0.609103,-1.960721 1.102049,-2.40624 -3.885853,-0.415988 -7.9742615,-1.960721 -7.9742615,-8.85314 0,-1.960721 0.6955027,-3.564881 1.7975523,-4.81248 -0.1738757,-0.445519 -0.7829785,-2.2877512 0.1742336,-4.753418 0,0 1.4788397,-0.4754147 4.8133096,1.8418673 A 16.839054,17.124408 0 0 1 17.51448,8.674495 c 1.47884,0 2.98636,0.2081762 4.378441,0.5942683 3.334828,-2.317282 4.813668,-1.8418673 4.813668,-1.8418673 0.957212,2.4656668 0.347751,4.307899 0.173875,4.753418 1.131089,1.247599 1.797911,2.851759 1.797911,4.81248 0,6.892419 -4.088409,8.407256 -8.003301,8.85314 0.638142,0.564372 1.188808,1.633691 1.188808,3.327173 0,2.40624 -0.02868,4.33743 -0.02868,4.931334 0,0.475414 0.319071,1.040152 1.188808,0.861871 C 29.983337,32.589239 34.99992,25.875465 34.99992,17.943623 35.028602,8.0207998 27.170496,0 17.51448,0 Z"
     fill="current"
     id="path1"
     style="stroke-width:0.361532" />
</svg>
