<svg width="60" height="60" viewBox="0 0 60 60" fill="none" xmlns="http://www.w3.org/2000/svg">
<path d="M31.0039 28.1015C29.4789 28.1015 28.2539 29.2981 28.2539 30.7877C28.2539 32.2774 29.4789 33.474 31.0039 33.474C32.5289 33.474 33.7539 32.2774 33.7539 30.7877C33.7539 29.2981 32.5289 28.1015 31.0039 28.1015ZM31.0039 6.36719C17.2039 6.36719 6.00391 17.3076 6.00391 30.7877C6.00391 44.2679 17.2039 55.2082 31.0039 55.2082C44.8039 55.2082 56.0039 44.2679 56.0039 30.7877C56.0039 17.3076 44.8039 6.36719 31.0039 6.36719ZM36.4789 36.1358L16.0039 45.44L25.5289 25.4396L46.0039 16.1354L36.4789 36.1358Z" fill="#3BA565"/>
</svg>
